<svg viewBox="0 0 169.26 15.75" xmlns="http://www.w3.org/2000/svg"><g fill="#fff"><path d="m.47 2.51v1.66h-.47v-2.08h3.53a.76.76 0 0 0 .27-.09l.34.2c-.14 1.21-.66 3.39-2.59 4.31l-.49-.34a4.17 4.17 0 0 0 2.54-3.66z"/><path d="m10.62 3.79a9.38 9.38 0 0 1 -3.88 2.28c-.07 0-.1.14-.15.17s-.1-.09-.14-.19l-.18-.44a7.53 7.53 0 0 0 4.14-2.27zm-3.15-.5a8 8 0 0 0 -1-1l.35-.34a8.12 8.12 0 0 1 1 1z"/><path d="m13.31 5.11c0 .81.27.77 1.25.77a8.42 8.42 0 0 0 1.95-.22v.54a15.87 15.87 0 0 1 -2.51.12c-1.1 0-1.22-.36-1.22-1.15v-3.33l.38.08c.11 0 .28 0 .28.12s-.17.08-.17.19v1.51a8 8 0 0 0 2.75-.89l.24.34c.07.09.13.19.08.23s-.16 0-.22 0a15.74 15.74 0 0 1 -2.84.77zm2.78-3a.58.58 0 1 1 .59.58.58.58 0 0 1 -.59-.59zm.91 0a.32.32 0 1 0 -.32.32.32.32 0 0 0 .32-.33z"/><path d="m21.32 6a2 2 0 0 0 1.62-2 1.76 1.76 0 0 0 -.94-1.53 1.85 1.85 0 0 0 -.8-.17 8.06 8.06 0 0 1 -.93 3c-.14.28-.4.73-.7.73-.59 0-1-1-1-1.67a2.49 2.49 0 0 1 2.43-2.48 2.15 2.15 0 0 1 2.39 2.12 2.51 2.51 0 0 1 -1.81 2.34zm-1.63-3.22a2.22 2.22 0 0 0 -.75 1.53c0 .67.41 1.1.61 1.1s.31-.24.4-.39a6.76 6.76 0 0 0 .75-2.7 1.92 1.92 0 0 0 -1.01.46z"/><path d="m25.73 2.18v1.1a7.61 7.61 0 0 1 -.58 3.32l-.37-.25a7.53 7.53 0 0 0 .55-3.25c0-.44 0-.88 0-1.29h2.07v-.48h.43c.07 0 .13 0 .13.07s-.11.07-.11.13v.28h2.24v.36zm.45 3.26v-1.44h1.34c.12-.13.28-.32.39-.47l.27.19c.07 0 .1.07.09.11s-.16 0-.18.07l-.09.1h1.73v1.43h-.73a3.2 3.2 0 0 1 -.28.5h.49a.68.68 0 0 0 -.15-.12l.18-.2a2.3 2.3 0 0 1 .52.5l-.2.17-.12-.13-1.06.13c-.06 0 0 .08-.07.09s-.07 0-.09-.1l-.1-.27h.25a3.48 3.48 0 0 0 .25-.52h-.62v.71c0 .17.11.22.29.22h1.09c.49 0 .5-.22.59-.53l.33.23c-.17.63-.4.64-.66.64h-1.55c-.34 0-.47-.11-.47-.35v-.97h-.16a2.08 2.08 0 0 1 -1.57 1.34l-.25-.36a1.57 1.57 0 0 0 1.39-1zm1.06-2.51a2.57 2.57 0 0 0 .53.52l-.22.21a4.66 4.66 0 0 1 -.49-.44v.64h-.34v-.72a2.53 2.53 0 0 1 -.55.7l-.29-.19a2.25 2.25 0 0 0 .63-.71h-.51v-.34h.76v-.34h.24c.07 0 .12 0 .12.05s-.09.05-.09.11v.18h.76v.32zm.49 1.6v-.27h-1.14v.27zm0 .6v-.3h-1.14v.29zm1.6-.87h-1.19v.27h1.19zm0 .58h-1.19v.29h1.19zm.2-1.91a3.55 3.55 0 0 0 .79.76l-.25.23a4.23 4.23 0 0 1 -.75-.74v.67h-.32v-.71a1.87 1.87 0 0 1 -.51.61l-.28-.2a1.7 1.7 0 0 0 .55-.61h-.53v-.34h.77v-.37h.32c.07 0 .12 0 .12.06s-.1.06-.1.11v.2h.76v.32z"/><path d="m31.91 3a3 3 0 0 1 .9.54l-.22.38a4.84 4.84 0 0 0 -.86-.54zm1.21 1.67-.69 1.91c0 .1.06.19 0 .25s-.15 0-.25-.07l-.35-.17a14.14 14.14 0 0 0 .87-2.17zm-.84-3.32a3.28 3.28 0 0 1 .87.56l-.23.37a6.67 6.67 0 0 0 -.86-.58zm4.32 5.33a3.84 3.84 0 0 0 -.31-.62c-.32.07-2.79.46-2.9.48s-.14.14-.19.14-.08-.05-.11-.15l-.16-.43.69-.1a8.18 8.18 0 0 0 .82-1.73h-1.44v-.38h1.77v-1.09h-1.5v-.41h1.5v-1.08l.44.06c.13 0 .14 0 .14.08s-.13.08-.13.14v.79h1.5v.42h-1.5v1.09h1.78v.41h-2.2l.2.1s.14.08.11.14-.16 0-.2.13l-.8 1.33c.82-.1 1.7-.22 2-.28a7.28 7.28 0 0 0 -.55-.8l.34-.22a6.89 6.89 0 0 1 1.1 1.72z"/><path d="m41.52 6a2 2 0 0 0 1.62-2 1.76 1.76 0 0 0 -.94-1.49 1.85 1.85 0 0 0 -.8-.17 8.06 8.06 0 0 1 -.93 3c-.14.28-.4.73-.7.73-.59 0-1-1-1-1.67a2.49 2.49 0 0 1 2.52-2.45 2.15 2.15 0 0 1 2.29 2.05 2.51 2.51 0 0 1 -1.81 2.34zm-1.64-3.22a2.22 2.22 0 0 0 -.75 1.53c0 .67.41 1.1.61 1.1s.31-.24.4-.39a6.76 6.76 0 0 0 .75-2.7 1.93 1.93 0 0 0 -1.01.46z"/><path d="m14.53 9.56h.4c.08 0 .23 0 .23.09s-.15.09-.15.16v3.27a6.77 6.77 0 0 0 3.27-2.19l.19.48a7.82 7.82 0 0 1 -3.63 2.3l-.32-.26z"/><path d="m24.35 11.29a9.38 9.38 0 0 1 -3.88 2.29c-.07 0-.1.14-.15.17s-.1-.09-.14-.19l-.18-.45a7.53 7.53 0 0 0 4.14-2.27zm-3.15-.5a8 8 0 0 0 -1-1l.35-.34a8.12 8.12 0 0 1 1 1z"/><path d="m30.38 10.45a.69.69 0 0 0 -.15.16 11.08 11.08 0 0 1 -.77 1.52 4.86 4.86 0 0 1 .58.48l-.31.36a4.55 4.55 0 0 0 -.54-.49 4.32 4.32 0 0 1 -2.26 1.52l-.32-.41a4 4 0 0 0 2.19-1.38 9.57 9.57 0 0 0 -1-.56l.2-.35a7.59 7.59 0 0 1 1 .56 5.44 5.44 0 0 0 .67-1.37h-1.67a6.57 6.57 0 0 1 -1.22 1.28l-.4-.31a5.21 5.21 0 0 0 1.82-2.32l.37.16c.08 0 .22.08.19.16s-.17 0-.21.11l-.31.52h1.46a2.29 2.29 0 0 0 .4-.05z"/><path d="m32 13.22a2.55 2.55 0 0 0 1.3-2.63c0-.28 0-.69 0-1h.39c.1 0 .25 0 .25.08s-.13.08-.13.16c0 .89.17 2.75-1.38 3.68zm2.72-3.7h.37c.12 0 .22 0 .22.07s-.13.09-.13.15v3a4.47 4.47 0 0 0 1.69-1.65l.32.35a5.71 5.71 0 0 1 -2.19 2.02l-.27-.21z"/><path d="m39.42 13.86a8 8 0 0 1 -.27-2.1 10.15 10.15 0 0 1 .34-2.48l.43.14a8.32 8.32 0 0 0 -.38 2.13 7.38 7.38 0 0 0 .07 1.27c.07-.17.2-.4.31-.65l.27.29a4.47 4.47 0 0 0 -.47 1.33zm3.88-.47a4.18 4.18 0 0 0 -.86-.43c0 .52-.2.83-.86.83s-1.09-.25-1.09-.7.41-.71.89-.71a4.37 4.37 0 0 1 .64.06c0-.56-.08-1.14-.08-1.66h-.49a6.63 6.63 0 0 1 -.67 0l-.08-.44a3.25 3.25 0 0 0 .85.07h.39c0-.53 0-1 .07-1.19l.47.13a8.79 8.79 0 0 0 -.13 1 3.78 3.78 0 0 0 .86-.26v.46l-.88.17c0 .81 0 1.4.07 1.8a6.05 6.05 0 0 1 1 .43zm-1.85-.65c-.49 0-.61.17-.61.33s.25.37.76.37.45-.23.43-.6a3.59 3.59 0 0 0 -.58-.09z"/><path d="m120.06 3.17c.32-1.11.88-1.33 1.44-1.33a1.17 1.17 0 0 1 1.09 1.16c0 1.22-1.66 1.85-2 2.88h2v.43h-2.59c0-1.43 2.1-2.29 2.1-3.26a.71.71 0 0 0 -.68-.79c-.78 0-.84.73-1 1z"/><path d="m127.79 3.71v.29h-1.18a3 3 0 0 1 -1.22 2.61l-.39-.17a2.51 2.51 0 0 0 1.22-2.44h-1a4.6 4.6 0 0 1 -.8 1.07l-.31-.23a4.51 4.51 0 0 0 1.26-2.28l.29.11c.09 0 .19.07.17.13s-.13 0-.14.1a5.74 5.74 0 0 1 -.29.77z"/><path d="m130.1 4.64a4.11 4.11 0 0 1 -.7 2.1l-.4-.22c.85-.83.72-3.33.72-3.55s0-1.14 0-1.38h3.26v4.41c0 .5 0 .8-1.14.7l-.17-.51c.72.06.85.1.85-.21v-1.34zm2.36-.4v-.91h-2.33v.92zm0-2.25h-2.33v.94h2.33z"/><path d="m137.61 2.28-.23-.14a6.52 6.52 0 0 0 .55-.75l.37.23s.07.06 0 .1-.11 0-.14 0l-.39.54h1.52v.41h-5.15v-.39h1.52a2.92 2.92 0 0 0 -.47-.63l.36-.26a5.55 5.55 0 0 1 .53.7l-.33.19h1.82zm-1.8 4.43-.22-.47h.34c.11 0 .17 0 .17-.11v-.59h-1.1v1.2h-.43v-3.58h2v3.22a.29.29 0 0 1 -.3.33zm.3-2.54v-.64h-1.11v.63zm0 1v-.65h-1.11v.64zm1.19-1.82h.44c.06 0 .1 0 .1.08s-.12.07-.12.1v2.32h-.43zm.7 3.41-.16-.49.52.06c.08 0 .11 0 .11-.2v-3h.46c.05 0 .1 0 .1.07s-.13.07-.13.1v3.11c0 .29-.14.35-.29.35z"/><path d="m140.23 3.33a6.69 6.69 0 0 0 1.33-.25 7.67 7.67 0 0 0 .2-1.3l.5.23c-.07.21-.14.58-.21.92a2.23 2.23 0 0 1 .52-.09c.27 0 .87.11.87 1.12a4.25 4.25 0 0 1 -.44 1.84 1 1 0 0 1 -1.15.43l-.19-.48a4.36 4.36 0 0 0 .52.06c.21 0 .37-.1.51-.4a3.54 3.54 0 0 0 .31-1.47c0-.28-.05-.68-.5-.68a2.31 2.31 0 0 0 -.54.1 9.83 9.83 0 0 1 -1.33 2.9l-.45-.26a6.17 6.17 0 0 0 1.28-2.52 9 9 0 0 1 -1 .25zm3.77-.89a2.81 2.81 0 0 1 .79 1.56c0 .47-.31.5-.65.58l-.26-.58h.23c.18 0 .23-.07.23-.14a.72.72 0 0 0 -.06-.29 4.28 4.28 0 0 0 -.69-1z"/><path d="m147.07 2.81a4.11 4.11 0 0 0 -.37 1.49 3.38 3.38 0 0 1 1.68-.62 1.15 1.15 0 0 1 1.18 1.19c0 1.22-1.62 1.64-2.58 1.61l-.28-.48c1.85.13 2.45-.66 2.45-1.25a.76.76 0 0 0 -.83-.73 3.2 3.2 0 0 0 -1.85 1l-.22-.15a7.57 7.57 0 0 1 .38-2.28zm-.07-1.21a7.81 7.81 0 0 1 1.61.7l-.21.4a6.94 6.94 0 0 0 -1.6-.7z"/><path d="m120.18 10.15a1.4 1.4 0 0 1 1.19-.82 1.09 1.09 0 0 1 1.13 1.12 1.07 1.07 0 0 1 -.53 1 1.18 1.18 0 0 1 .63 1.19 1.27 1.27 0 0 1 -1.2 1.3 1.52 1.52 0 0 1 -1.36-.86l.41-.23a1 1 0 0 0 .89.64.82.82 0 0 0 .81-.86.84.84 0 0 0 -.86-.92h-.43v-.43a2.49 2.49 0 0 0 .44 0c.52-.1.74-.35.74-.76a.66.66 0 0 0 -.67-.68c-.46 0-.69.4-.83.59z"/><path d="m127.73 14.19v-.49h-2.63v.49h-.46v-5h3.54v5zm0-4.55h-2.63v1.61h2.63zm0 2h-2.63v1.63h2.63z"/><path d="m132.84 9.78-.23-.14a6.53 6.53 0 0 0 .55-.75l.37.23s.07.06 0 .1-.11 0-.14 0l-.39.54h1.52v.41h-5.15v-.39h1.52a2.92 2.92 0 0 0 -.47-.63l.36-.26a5.55 5.55 0 0 1 .53.7l-.33.19h1.82zm-1.84 4.43-.22-.47h.34c.11 0 .17 0 .17-.11v-.63h-1.09v1.19h-.43v-3.53h2v3.22a.29.29 0 0 1 -.3.33zm.3-2.54v-.67h-1.1v.63zm0 1v-.67h-1.1v.64zm1.19-1.82h.44c.06 0 .1 0 .1.08s-.12.07-.12.1v2.29h-.43zm.67 3.42-.16-.49.52.06c.08 0 .11 0 .11-.2v-3h.46c.05 0 .1 0 .1.07s-.13.07-.13.1v3.07c0 .29-.14.35-.29.35z"/><path d="m139.39 11.38a10.17 10.17 0 0 1 -1.41.2l.09 1a4.65 4.65 0 0 1 1.47.56l-.18.43a4 4 0 0 0 -1.26-.57c0 .76-.32 1-.91 1-.86 0-1.26-.38-1.26-.76s.34-.66 1.17-.67a4.18 4.18 0 0 1 .57 0l-.1-.95h-.57c-.75 0-1-.14-1-.34s.26-.4.55-.6l.24.2c-.08.08-.27.18-.27.23s.31.15.75.15h.22c0-.31 0-.61-.06-.89l-1.72.13v-.44h1.75a6.47 6.47 0 0 1 0-.94l.55.14a2.62 2.62 0 0 0 -.12.79l1.66-.06v.41a10.55 10.55 0 0 0 -1.66 0v.88a6.79 6.79 0 0 0 1.42-.32zm-2.19 2.19c.46 0 .53-.25.5-.66a4.82 4.82 0 0 0 -.57-.06c-.48 0-.79.14-.79.35s.32.36.86.36z"/><path d="m141 9.87a24.62 24.62 0 0 0 4.36-.54v.47c-1 .14-2.52 1.22-2.52 2.43s1 1.24 1.59 1.36l-.17.49c-.83-.18-1.83-.61-1.83-1.69a2.93 2.93 0 0 1 1.68-2.45c-.6 0-2.48.31-3 .39zm3.54.9a4 4 0 0 1 .5.76l-.29.25a5.26 5.26 0 0 0 -.52-.79zm.58-.52a5.28 5.28 0 0 1 .51.76l-.3.25a5.56 5.56 0 0 0 -.51-.79z"/><path d="m151 9.27c-.18.14-1.46 1-1.68 1.1.17.13.31.26.41.36l-.27.26h2.12l.11.16c-.17.2-1.12 1.18-1.35 1.35l-.35-.29a4.74 4.74 0 0 0 .83-.81h-1.49v2.35c0 .39-.14.57-.63.57h-.43l-.16-.55a2.62 2.62 0 0 0 .5.08c.12 0 .26-.05.26-.23v-2.21h-2.33v-.41h2.77a5.88 5.88 0 0 0 -1.31-1l.23-.35a7.4 7.4 0 0 1 .72.42 7.57 7.57 0 0 0 1-.71h-2.72v-.36h3.5z"/><path d="m152.66 9.62.32.22a8.51 8.51 0 0 0 .62-1l.29.17c.09.05.19.13.14.19s-.16 0-.2.08a6.32 6.32 0 0 1 -.56.85c.1.09.24.2.35.31.22-.29.42-.58.54-.77l.32.21c.08.05.19.16.13.23s-.2 0-.29.07a15 15 0 0 1 -1 1.28c.28 0 .59 0 .85-.07l-.15-.29.32-.18a5.3 5.3 0 0 1 .52 1l-.36.16-.16-.35-.57.05v2.53h-.41v-2.51l-.73.07c-.14 0-.07.16-.16.16s-.11-.16-.11-.26v-.33h.47c.13-.13.33-.43.54-.71a5.86 5.86 0 0 0 -.94-.79zm.42 2.66a6.85 6.85 0 0 1 -.3 1.73l-.43-.09a8 8 0 0 0 .3-1.69zm1.31-.08a5.84 5.84 0 0 1 .37 1.46l-.43.16a6.68 6.68 0 0 0 -.32-1.5zm3.15-2.11a17.28 17.28 0 0 1 -.2 3.59.71.71 0 0 1 -.71.58h-.63l-.16-.53a2.7 2.7 0 0 0 .61.1c.33 0 .42-.17.49-.57a23 23 0 0 0 .14-2.77h-1.67a7.1 7.1 0 0 1 -.49.67l-.41-.21a6.63 6.63 0 0 0 1.21-2l.28.16c.1.05.2.1.17.17s-.14 0-.19.14l-.35.7zm-1.64 2.62a8.88 8.88 0 0 0 -.5-1.15l.4-.16a10.68 10.68 0 0 1 .5 1.15z"/><path d="m161.79 9.84a2.44 2.44 0 0 1 .77 1.84 2.4 2.4 0 0 1 -.77 1.84 2.23 2.23 0 0 1 -2.69 0 2.4 2.4 0 0 1 -.77-1.84 2.45 2.45 0 0 1 .77-1.84 2.23 2.23 0 0 1 2.69 0zm-2.4.47a2 2 0 0 0 -.48 1.37 2 2 0 0 0 .48 1.37 1.55 1.55 0 0 0 2.12 0 2 2 0 0 0 .48-1.37 2 2 0 0 0 -.48-1.37 1.55 1.55 0 0 0 -2.12 0z"/><path d="m164 9.46v2.17l2.17-2.17h.74l-1.81 1.79 1.79 2.58h-.65l-1.52-2.2-.72.71v1.49h-.56v-4.37z"/><path d="m168.87 12.75-.14-3.33h.53l-.14 3.33zm-.14 1.07v-.5h.53v.5z"/><path d="m52.17 14.33c-2 0-3.71-1-3.71-2.34a1 1 0 0 1 1.06-1.06.85.85 0 0 1 .91.83c0 .13-.16.78-.16.93 0 .61.81 1.08 1.67 1.08a3 3 0 0 0 2.9-2.93 3 3 0 0 0 -2.92-3c-.1 0-.63.07-.75.07-.28 0-.41-.17-.41-.35a.4.4 0 0 1 .43-.38c.12 0 .68.1.81.1a2.51 2.51 0 0 0 2.54-2.58 2.35 2.35 0 0 0 -2.34-2.53c-1 0-1.51.61-1.51 1.13 0 .08.12.53.12.63a.93.93 0 0 1 -1 .91.9.9 0 0 1 -.93-.91c0-.91 1.19-2.32 3.58-2.32s3.73 1.31 3.73 2.78a2.55 2.55 0 0 1 -.68 1.69 4.54 4.54 0 0 1 -2.37 1.41c.83.22 3.33.88 3.33 3.35.04 2.03-1.85 3.49-4.3 3.49z"/><path d="m64.06 7.12c-.4 0-.55-.23-.86-.76a4.07 4.07 0 0 0 -1.09-1.29v-.12c2.49.12 2.55 1.24 2.55 1.44a.65.65 0 0 1 -.6.73zm1.61 1a27.26 27.26 0 0 0 -.95 3.56 4.33 4.33 0 0 0 .28 1.32 4.92 4.92 0 0 1 .21 1.09.78.78 0 0 1 -.76.88c-.8 0-.8-.89-.8-1.16s0-.94 0-1.13a2 2 0 0 0 -1-2v-.1c1 0 1.06-.15 1.49-1 .56-1.16 1.51-3.33 2.22-5h.12c-.06.61-.69 3.21-.81 3.57zm0-5.15c-.43 0-.55-.25-1-1a4.14 4.14 0 0 0 -.89-1.23v-.1c1.08.12 2.5.56 2.5 1.66a.66.66 0 0 1 -.63.7zm10.07 1.42v4.41c0 .83.18 5.34.18 5.5a.84.84 0 0 1 -.86.81c-.53 0-.51-.4-.5-1.33h-5.41v.6c0 .53-.53.76-.93.76-.2 0-.42-.15-.42-.55 0-.15 0-.83 0-1 0-2.4 0-4.76 0-5.75s0-3.41-.1-4.24a5.71 5.71 0 0 0 -.17-.81l1.64.73h1.09a8.3 8.3 0 0 0 .78-3c0-.13 0-.25 0-.41l1.66.7c.12 0 .27.12.27.28s-.1.22-.58.4c-.18.23-1.18 1.57-1.67 2.09h3.51l.43-.45c.17-.17.22-.23.32-.23s.17 0 .33.18l.66.51c.18.13.2.2.2.26s-.04.28-.43.54zm-1.16-.39h-5.45v4.43h5.45zm0 4.87h-5.45v4.56h5.45z"/><path d="m88.47 10.57v1.91c0 .78.48 1 1.31 1h.28v.52h-4.72v-.53h.3c.83 0 1.31-.23 1.31-1v-1.9h-5v-.57l5.8-8.37h.76v8.37h2.12v.55zm-1.52-6.78-4.33 6.21h4.33z"/><path d="m106.21 2.88v2.42c0 2.92.08 6.93.15 7.92v.63c0 .61-.65.8-.94.8s-.43-.18-.43-.5c0 0 0-.25 0-.66h-6.1c0 .48 0 1.21-.91 1.21a.39.39 0 0 1 -.45-.45c0-.12 0-1 .08-1.44.07-1.28.12-5.93.12-7.09 0-3.53-.08-3.93-.26-4.66l1.67.86h5.65l.51-.5c.13-.13.22-.2.33-.2a.57.57 0 0 1 .31.18l.71.65c.12.12.2.21.2.31s-.21.32-.64.52zm-1.21-.56h-6.13v5h6.13zm0 5.42h-6.13v5.35h6.13z"/><path d="m113.15 0v15.75" stroke="#fff" stroke-miterlimit="10" stroke-width=".25"/></g></svg>