<svg viewBox="0 0 512 399.62" xmlns="http://www.w3.org/2000/svg"><path d="m510.75 54.17a67.19 67.19 0 0 0 -13.93-29.46 56.69 56.69 0 0 0 -4.54-5 67.46 67.46 0 0 0 -47.53-19.71h-377.51a66.79 66.79 0 0 0 -47.53 19.71 59 59 0 0 0 -4.57 5.07 66.39 66.39 0 0 0 -13.83 29.42 65 65 0 0 0 -1.31 13.05v265.13a67.61 67.61 0 0 0 19.7 47.53c1.52 1.51 3 2.9 4.63 4.26a67.41 67.41 0 0 0 42.91 15.45h377.51a66.9 66.9 0 0 0 43-15.56 58.23 58.23 0 0 0 4.58-4.15 66.86 66.86 0 0 0 13.77-19.85l.44-1a66.29 66.29 0 0 0 5.5-26.63v-265.18a68.9 68.9 0 0 0 -1.29-13.08zm-475.93-11.25a31.63 31.63 0 0 1 3.71-4.38 40.36 40.36 0 0 1 28.71-11.92h377.51a40.06 40.06 0 0 1 28.72 11.93 40.53 40.53 0 0 1 3.66 4.27l2.87 3.88-201.48 175.62a34.25 34.25 0 0 1 -45 0l-201.33-175.57zm-8.07 291.8a16 16 0 0 1 -.13-2.34v-259.64l156.38 136.41-154.8 134.96zm438.15 32.93a40.35 40.35 0 0 1 -20.15 5.35h-377.51a40.32 40.32 0 0 1 -20.14-5.34l-6.33-3.66 159.94-139.4 17.53 15.25a57.52 57.52 0 0 0 75.59 0l17.52-15.25 159.88 139.4zm20.47-35.27a16.79 16.79 0 0 1 -.12 2.3l-1.39 9.47-154.86-134.93 156.37-136.42z" fill="#fff"/></svg>