<svg enable-background="new 0 0 494.8 494.8" viewBox="0 0 494.8 494.8" xmlns="http://www.w3.org/2000/svg"><path d="m410.8 452.5c-.7-1.6-1.4-3.3-1.9-4.9-.7-2.2-7.3-19.8-17.3-46.6-27-72-77.3-206-79.7-220.5-2.9-19.1 1.6-44.8 13.3-76.4l.5-1.5c.7-1.3 6.6-13.5 1.6-27.2-2.1-5.7-8-19-18.6-25.3l12.2-42.1c.9-3.1-.9-6.4-4-7.4-3.2-.9-6.4.9-7.4 4l-12.3 42.2c-1.9 0-3.9.3-5.9.9-7.4 2.1-15.5 5.6-22.7 8.7-8.5 3.7-16.6 7.2-20.8 7.2-4.3 0-12.3-3.5-20.8-7.2-7.1-3.1-15.2-6.6-22.7-8.7-2-.6-4-.9-5.9-.9l-12.3-42.1c-.9-3.1-4.2-5-7.4-4-3.1.9-5 4.2-4 7.4l12.3 42c-10.7 6.3-16.6 19.7-18.6 25.3-5.1 13.7.9 25.9 1.6 27.2l.5 1.5c11.7 31.6 16.1 57.3 13.3 76.3-3.2 19.4-91.3 253.8-95.8 265-1 2.5-2.1 4.7-3.1 6.7-3.1 6.1-5.9 11.9 1.8 16.9.6.4 1.4.9 2.4 1.5 11.8 7.8 47.7 31.7 80.8 18.9 25-9.6 35-5.2 45.6-.6 6 2.6 12.1 5.3 20.8 5.3 6.6 0 14.8-1.6 25.6-5.9 27.9-11.2 43.7-5.5 56.4-.8 11.4 4.1 21.3 7.7 34.9-1.7 19.8-13.7 30.9-13.8 39.9-13.8 4.8 0 9.4-.1 14.1-2.3 9.1-4.3 6-11.4 3.6-17.1z" fill="#c77485"/></svg>