<?xml version="1.0" encoding="utf-8"?>
<!-- Generator: Adobe Illustrator 21.1.0, SVG Export Plug-In . SVG Version: 6.00 Build 0)  -->
<svg version="1.1" id="レイヤー_1" xmlns="http://www.w3.org/2000/svg" xmlns:xlink="http://www.w3.org/1999/xlink" x="0px"
	 y="0px" viewBox="0 0 40 40" style="enable-background:new 0 0 40 40;" xml:space="preserve">
<style type="text/css">
	.st0{fill:#C77485;}
</style>
<path class="st0" d="M39.7,37.8L28.5,26.7c2.6-2.9,4-6.6,4-10.6c0-4.3-1.7-8.3-4.7-11.4c-3-3-7.1-4.7-11.4-4.7
	C12.2,0,8.2,1.7,5.1,4.7c-3,3-4.7,7.1-4.7,11.4s1.7,8.3,4.7,11.4c3,3,7.1,4.7,11.4,4.7c3.9,0,7.6-1.4,10.5-3.9l11.2,11.2
	c0.2,0.2,0.5,0.3,0.8,0.3s0.6-0.1,0.8-0.3C40.1,38.9,40.1,38.2,39.7,37.8z M16.5,30C8.8,30,2.6,23.7,2.6,16.1
	c0-7.7,6.2-13.9,13.9-13.9s13.9,6.2,13.9,13.9C30.4,23.7,24.1,30,16.5,30z"/>
<path class="st0" d="M24.9,15h-7.3V7.7c0-0.6-0.5-1.1-1.1-1.1s-1.1,0.5-1.1,1.1V15H8.1C7.5,15,7,15.5,7,16.1s0.5,1.1,1.1,1.1h7.3
	v7.3c0,0.6,0.5,1.1,1.1,1.1c0.6,0,1.1-0.5,1.1-1.1v-7.3h7.3c0.6,0,1.1-0.5,1.1-1.1S25.5,15,24.9,15z"/>
</svg>
