<svg enable-background="new 0 0 331.3 331.3" viewBox="0 0 331.3 331.3" xmlns="http://www.w3.org/2000/svg"><g fill="#c77485"><path d="m173 320.4c-1.5-.7-38.4-16.4-75.6-46.9-50.3-41.2-76.9-89.8-76.9-140.5 0-72.2 65.2-131 145.5-131 80.2 0 145.5 58.8 145.5 131 0 68.5-58.6 124.8-133 130.6l12.5 64.4zm-131.7-187.3c0 44.7 23.2 86.4 68.9 124 19.4 15.9 39 27.7 52.6 35.1l-9.5-48.9h12.7c68.7 0 124.7-49.4 124.7-110.2s-55.9-110.2-124.7-110.2-124.7 49.4-124.7 110.2z"/><path d="m121.3 90.4c2.3-5.9 5.5-11 9.6-15.3s9.1-7.7 14.9-10.1 12.3-3.6 19.5-3.6c9.3 0 17 1.3 23.3 3.8 6.2 2.6 11.2 5.7 15 9.5s6.5 7.9 8.1 12.3 2.5 8.5 2.5 12.3c0 6.3-.8 11.5-2.5 15.5-1.6 4.1-3.7 7.5-6.1 10.4s-5.1 5.3-8.1 7.4c-2.9 2-5.7 4.1-8.3 6.1s-4.9 4.4-7 7c-2 2.6-3.3 5.9-3.8 9.8v7.5h-26.4v-8.8c.4-5.6 1.5-10.3 3.2-14.1 1.8-3.8 3.8-7 6.2-9.7s4.8-5 7.5-7c2.6-2 5-3.9 7.3-5.9 2.2-2 4-4.1 5.4-6.5s2-5.3 1.9-8.8c0-6-1.5-10.5-4.4-13.4s-7-4.3-12.3-4.3c-3.5 0-6.6.7-9.1 2.1-2.6 1.4-4.6 3.2-6.3 5.5-1.6 2.3-2.8 5-3.6 8-.8 3.1-1.2 6.4-1.2 9.9h-28.9c.1-7.2 1.3-13.7 3.6-19.6zm58.8 84.3v30.2h-30.8v-30.2z"/></g></svg>