<svg viewBox="0 0 9.91 8.54" xmlns="http://www.w3.org/2000/svg"><path d="m9.78.53-.4-.4a.45.45 0 0 0 -.32-.13.53.53 0 0 0 -.37.16l-2.1 2.1a.31.31 0 0 0 -.13 0h-5.67a.79.79 0 0 0 -.79.74v4.75a.79.79 0 0 0 .79.79h6.52a.79.79 0 0 0 .79-.79v-4.68a.32.32 0 0 0 0-.16l1.7-1.7a.53.53 0 0 0 .11-.33.45.45 0 0 0 -.13-.35zm-2.32 7.22a.15.15 0 0 1 -.15.15h-6.52a.15.15 0 0 1 -.15-.15v-4.75a.15.15 0 0 1 .15-.15h5.21l-1.73 1.72a.15.15 0 0 0 0 .07l-.36 1.18a.15.15 0 0 0 .09.18l1.18-.33h.07l2.21-2.16z" fill="#fff"/></svg>