<svg xmlns="http://www.w3.org/2000/svg" viewBox="7 4097 22.5 22.5">
  <defs>
    <style>
      .cls-1 {
        fill: #fff;
      }
    </style>
  </defs>
  <g id="グループ化_215" data-name="グループ化 215" transform="translate(0 -19)">
    <path id="パス_122" data-name="パス 122" class="cls-1" d="M152.34,146.539a.578.578,0,0,0-.817,0l-.7.7a.578.578,0,0,1-.763.048,17.051,17.051,0,0,1-3.321-3.322.578.578,0,0,1,.048-.762l.7-.7a.577.577,0,0,0,0-.817l-1.553-1.553a.578.578,0,0,0-.817,0l-.936.937c-.993.993.32,4.035,2.53,6.245s5.253,3.523,6.246,2.53l.936-.937a.577.577,0,0,0,0-.817Z" transform="translate(-130.524 3982.187)"/>
    <path id="パス_123" data-name="パス 123" class="cls-1" d="M11.25,0A11.25,11.25,0,1,0,22.5,11.25,11.25,11.25,0,0,0,11.25,0Zm0,20.742a9.492,9.492,0,1,1,9.492-9.492A9.5,9.5,0,0,1,11.25,20.742Z" transform="translate(7 4116)"/>
  </g>
</svg>
