<?xml version="1.0" encoding="utf-8"?>
<!-- Generator: Adobe Illustrator 21.1.0, SVG Export Plug-In . SVG Version: 6.00 Build 0)  -->
<svg version="1.1" id="レイヤー_1" xmlns="http://www.w3.org/2000/svg" xmlns:xlink="http://www.w3.org/1999/xlink" x="0px"
	 y="0px" viewBox="0 0 494.8 494.8" style="enable-background:new 0 0 494.8 494.8;" xml:space="preserve">
<style type="text/css">
	.st0{fill:#C77485;}
	.st1{fill:none;stroke:#FFFFFF;stroke-width:4.252;stroke-linecap:round;stroke-linejoin:round;stroke-miterlimit:10;}
	.st2{fill:none;stroke:#FFFFFF;stroke-width:2.8347;stroke-linecap:round;stroke-linejoin:round;stroke-miterlimit:10;}
	.st3{fill:#FFFFFF;stroke:#FFFFFF;stroke-width:1.4173;stroke-miterlimit:10;}
</style>
<g>
	<path class="st0" d="M413.7,449.6c-28.1-82.2-57.7-147.8-79.4-195.8c-20.2-44.8-33.6-74.4-33.6-89.6c0-26.5,13.7-60,19.5-73
		l3.1,2.6c1.1,1.2,2.7,1.9,4.3,1.9c1.6,0,3.2-0.6,4.4-1.8l27.8-27.5c2.4-2.4,2.4-6.5,0.1-9L324.4,19c-7.4-8-20.1-12.3-28.5-15.2
		c-0.9-0.3-1.9,0.1-2.5,0.9c-10.3,17-27.5,25.9-49.8,25.9c-22.3,0-39.5-9-49.8-25.9c-0.5-0.8-1.5-1.2-2.5-0.9
		C183.1,6.7,170.4,11,163,19l-35.5,38.4c-2.3,2.5-2.3,6.5,0.1,9l27.7,27.5c1.2,1.2,2.8,1.9,4.4,1.8c1.6,0,3.2-0.7,4.3-1.9l3.1-2.6
		c5.8,13,19.5,46.5,19.5,73c0,15.2-13.3,44.8-33.6,89.6c-21.6,48-51.3,113.6-79.4,195.8c-0.2,0.6-0.1,1.3,0.2,1.8
		c0.4,0.5,1,0.9,1.6,0.9c2.8,0.1,4.1,1.7,6.3,4.8c3.6,5,8.6,11.8,26,8.8c8.4-1.5,11.4,2,15.2,6.3c5.4,6.1,11.5,13,31.7,7.1
		c9.5-2.7,13.9,1.2,19.1,5.7c6.1,5.3,13,11.4,28.4,4.8c14.1-6.1,18.8-3.6,24.6-0.4c4.1,2.2,8.7,4.7,16.6,5c0,0,0.1,0,0.1,0
		s0.1,0,0.1,0c8-0.3,12.6-2.8,16.6-5c5.9-3.2,10.5-5.7,24.6,0.4c15.3,6.6,22.3,0.6,28.4-4.8c5.2-4.5,9.6-8.4,19.1-5.7
		c20.3,5.8,26.4-1.1,31.7-7.1c3.9-4.4,6.9-7.8,15.2-6.3c17.4,3.1,22.4-3.8,26-8.8c2.2-3.1,3.5-4.7,6.3-4.8c0.7,0,1.3-0.4,1.6-0.9
		C413.8,450.9,413.9,450.2,413.7,449.6z"/>
	<path class="st1" d="M304.6,166.9c-19.5,0.3-39.9,0.4-60.9,0.4c-21,0-41.4-0.1-60.9-0.4"/>
	<path class="st1" d="M177.2,187.8c21.2,0.3,43.5,0.5,66.5,0.5s45.3-0.2,66.5-0.5"/>
	<line class="st2" x1="243.7" y1="26.1" x2="243.7" y2="155.6"/>
	<path class="st1" d="M321.9,95.7c0,0,0.3-1.9,0-3.8c0,0-0.5-19.3-24.7-26.1c-12.1-3.4-29.4-5.7-53.5-5.7s-41.4,2.3-53.5,5.7
		C166,72.7,165.6,92,165.6,92c-0.2,1.8,0,3.8,0,3.8"/>
	<circle class="st3" cx="243.7" cy="143.9" r="4.5"/>
	<circle class="st3" cx="243.7" cy="119.8" r="4.5"/>
	<circle class="st3" cx="243.7" cy="95.6" r="4.5"/>
	<circle class="st3" cx="243.7" cy="71.4" r="4.5"/>
	<circle class="st3" cx="243.7" cy="47.3" r="4.5"/>
	<g>
		<path class="st2" d="M233,203.9c0,0-15.8,118.2-21.4,283"/>
		<path class="st2" d="M113.4,466.5c30.5-128.8,61.4-220.1,82.4-268.6"/>
		<path class="st2" d="M159.4,479.5c22.2-151.9,31.2-179.5,50.9-265.7"/>
		<path class="st2" d="M254.5,203.9c0,0,15.8,118.2,21.4,283"/>
		<path class="st2" d="M373.9,466.2c-30.5-128.7-61.3-219.8-82.4-268.2"/>
		<path class="st2" d="M328,478.6c-22.1-151.1-31.1-178.8-50.8-264.8"/>
	</g>
	<path class="st2" d="M404.4,415.4c-3.7,5-8.3,15-25.2,12c-21.8-3.8-13.1,25.8-46.8,16c-22.6-6.5-20.8,21.8-47.3,10.5
		c-21.7-9.2-22.1,5.3-41.4,6.1c-19.3-0.8-19.7-15.3-41.4-6.1c-26.5,11.2-24.7-17-47.3-10.5c-33.6,9.7-25-19.9-46.8-16
		c-16.9,3-21.5-7-25.2-12"/>
</g>
</svg>
