<?xml version="1.0" encoding="utf-8"?>
<!-- Generator: Adobe Illustrator 21.1.0, SVG Export Plug-In . SVG Version: 6.00 Build 0)  -->
<svg version="1.1" id="グループ化_52" xmlns="http://www.w3.org/2000/svg" xmlns:xlink="http://www.w3.org/1999/xlink" x="0px"
	 y="0px" width="22.1px" height="22.5px" viewBox="0 0 22.1 22.5" style="enable-background:new 0 0 22.1 22.5;"
	 xml:space="preserve">
<style type="text/css">
	.st0{fill:#FFFFFF;}
</style>
<path id="パス_34" class="st0" d="M0.6,5.9c0.5-0.7,1.3-1.1,2.1-1.2l14.1-1.1l0.1-0.8c0.2-1.3,1.3-2.3,2.6-2.5L21.3,0
	c0.4-0.1,0.8,0.2,0.9,0.7c0,0.4-0.2,0.8-0.6,0.8l0,0l-1.8,0.3c-0.7,0.1-1.2,0.6-1.3,1.3L16,16.5c-0.2,1.3-1.3,2.2-2.6,2.2H3.7
	c-0.4,0-0.8-0.3-0.8-0.7s0.3-0.8,0.7-0.8c0,0,0,0,0.1,0h9.8c0.5,0,1-0.4,1.1-0.9l0.2-1.2H4c-1.4,0-2.6-0.9-2.9-2.3l-1-4.4
	C-0.1,7.4,0.1,6.6,0.6,5.9L0.6,5.9z M8.3,5.5L5.1,5.8v8h3.2V5.5z M9.3,13.7h3.2V5.2L9.3,5.4V13.7z M16.5,4.9l-3.1,0.2v8.6H15
	L16.5,4.9z M1.3,8l1,4.4c0.2,0.8,0.9,1.3,1.6,1.3h0.1V5.9L2.8,6C1.9,6,1.2,6.8,1.3,7.7C1.3,7.8,1.3,7.9,1.3,8z"/>
<path id="パス_35" class="st0" d="M12.9,19.8c0.8,0,1.4,0.6,1.4,1.4s-0.6,1.4-1.4,1.4c-0.8,0-1.4-0.6-1.4-1.4l0,0
	C11.5,20.4,12.1,19.8,12.9,19.8z"/>
<path id="パス_36" class="st0" d="M5.5,19.8c0.8,0,1.4,0.6,1.4,1.4c0,0.8-0.6,1.4-1.4,1.4c-0.8,0-1.4-0.6-1.4-1.4l0,0
	C4.2,20.4,4.8,19.8,5.5,19.8z"/>
</svg>
