<svg enable-background="new 0 0 494.8 494.8" viewBox="0 0 494.8 494.8" xmlns="http://www.w3.org/2000/svg"><g fill="#c77485"><path d="m228.2 398.9 27.2-9.4-25.6-21z"/><path d="m293.1 377-58.5-47.8-2.5 25.4 36.5 29.9z"/><path d="m404.9 121-163.2 199.4 58.6 47.9 163.1-199.4z"/><path d="m310.8 102.6c0 1.7-1.4 3.1-3.1 3.1h-254c-1.7 0-3.1-1.4-3.1-3.1v-30.6c0-1.7 1.4-3.1 3.1-3.1h254c1.7 0 3.1 1.4 3.1 3.1z"/><path d="m310.8 179.2c0 1.7-1.4 3.1-3.1 3.1h-254c-1.7 0-3.1-1.4-3.1-3.1v-30.6c0-1.7 1.4-3.1 3.1-3.1h254c1.7 0 3.1 1.4 3.1 3.1z"/><path d="m271 255.7c0 1.7-1.4 3.1-3.1 3.1h-214.2c-1.7 0-3.1-1.4-3.1-3.1v-30.6c0-1.7 1.4-3.1 3.1-3.1h214.3c1.7 0 3.1 1.4 3.1 3.1v30.6z"/><path d="m212.9 332.2c0 1.7-1.4 3.1-3.1 3.1h-156.1c-1.7 0-3.1-1.4-3.1-3.1v-30.6c0-1.7 1.4-3.1 3.1-3.1h156.1c1.7 0 3.1 1.4 3.1 3.1z"/><path d="m188.4 408.7c0 1.7-1.4 3.1-3.1 3.1h-131.6c-1.7 0-3.1-1.4-3.1-3.1v-30.6c0-1.7 1.4-3.1 3.1-3.1h131.6c1.7 0 3.1 1.4 3.1 3.1z"/></g></svg>