<svg enable-background="new 0 0 512 512" viewBox="0 0 512 512" xmlns="http://www.w3.org/2000/svg"><path d="m488.6 314.9c.8-1.5 1.7-2.9 2.4-4.4.1-.1.1-.3.2-.4 13.5-26.7 20.8-55.7 20.8-85.8 0-120-114.8-217.7-256-217.7-141.2 0-256 97.7-256 217.7 0 119 112.9 216.1 252.5 217.7l74.3 58.1c4.5 3.5 9.9 5.3 15.4 5.3 3.2 0 6.3-.6 9.4-1.8 8.3-3.3 14.1-10.8 15.4-19.7l9.4-67.3c31.2-14.1 58-33.4 79.5-56.2 13.1-14 24-29.3 32.7-45.5zm-218.2 15.9h-115.1c-7.9 0-14.3-6.4-14.3-14.3s6.4-14.3 14.3-14.3h115.1c7.9 0 14.3 6.4 14.3 14.3s-6.4 14.3-14.3 14.3zm-129.4-84.5c0-7.9 6.4-14.3 14.3-14.3h201.3c7.9 0 14.3 6.4 14.3 14.3s-6.4 14.3-14.3 14.3h-201.3c-7.9.1-14.3-6.3-14.3-14.3zm215.7-55.7h-201.4c-7.9 0-14.3-6.4-14.3-14.3s6.4-14.3 14.3-14.3h201.3c7.9 0 14.3 6.4 14.3 14.3s-6.3 14.3-14.2 14.3z" fill="#c77485"/></svg>