<svg enable-background="new 0 0 320 31" viewBox="0 0 320 31" xmlns="http://www.w3.org/2000/svg"><path d="m12.4 8.8c-1.3-.7-2.7-1.3-4.1-1.9v5.8h-.9v-10.1l1.2.1c0 .1-.1.2-.3.2v3.4l.2-.3c1.5.6 3 1.2 4.4 2zm-1.3-5.5c.6.5 1.1 1.1 1.6 1.7l-.4.4c-.5-.6-1-1.2-1.6-1.7zm1.6-1c.6.5 1.1 1.1 1.6 1.7l-.4.4c-.5-.6-1-1.2-1.6-1.7z" fill="#65504e" stroke="#65504e" stroke-linejoin="round" stroke-width=".2"/><path d="m18.3 11.4c3-.8 5.3-2.3 6.8-4.8.2.2.4.4.6.6-1.6 2.7-4.2 4.3-7.7 5.2 0 .1-.1.2-.2.2l-.5-.8.1-.2v-8.6h1.1c0 .1-.1.2-.4.3z" fill="#65504e" stroke="#65504e" stroke-linejoin="round" stroke-width=".2"/><path d="m34.2 3.8c0 .1-.1.1 0 0-.7 1.5-1.5 2.9-2.4 4.1 1.5 1.2 2.9 2.6 4.3 4l-.7.6c-1.3-1.4-2.6-2.7-4.1-3.9-1.3 1.5-2.8 2.9-4.5 3.9-.2-.2-.4-.4-.6-.6 3-1.8 5.4-4.4 6.9-7.6h-5.7v-.9h6.2l.2-.1z" fill="#65504e" stroke="#65504e" stroke-linejoin="round" stroke-width=".2"/><path d="m6.6 21.4h10.8v.9h-10.8z" fill="#65504e" stroke="#65504e" stroke-linejoin="round" stroke-width=".14"/><path d="m26.2 22c-.4.5-.8 1-1.3 1.5-.1-.2-.3-.5-.4-.7 1.1-1.1 2-2.4 2.8-3.8l.9.3c-.1.1-.2.1-.3.1-.3.5-.6 1-.9 1.5l.2.1c0 .1-.1.1-.2.1v6.2h-.7v-5.3zm1.7-5.2c0 .1-.2.1-.3.1-.8 1-1.7 1.8-2.7 2.6-.1-.2-.3-.4-.4-.6.9-.7 1.8-1.6 2.5-2.5zm6.5 5.2h-2.6v1.1h3v.7h-3v1.1h3.4v.7h-3.4v1.8h-.8v-1.8h-3.4v-.7h3.4v-1.1h-2.9v-.7h2.9v-1.1h-2.5v-.7h2.5v-1.2h-3v-.7h3v-1.1h-2.5v-.7h2.5v-1.2l1 .1c0 .1-.1.1-.2.2v1h2.5v1.8h1v.7h-1zm-2.5-3.6v1.1h1.8v-1.1zm0 1.8v1.1h1.8v-1.2z" fill="#65504e" stroke="#65504e" stroke-linejoin="round" stroke-width=".14"/><g fill="#c77485"><path d="m60.9 4.7h-9.4l-.9 6.3c.7-.1 1.3-.2 2-.1 1.8 0 3.7.4 5.3 1.3 2.2 1.3 3.6 3.7 3.5 6.3 0 4.8-3.8 8.4-9.1 8.4-2.1 0-4.2-.5-6.1-1.5l.8-2.5c1.6.9 3.4 1.3 5.2 1.4 3.1 0 5.8-2 5.8-5.3s-2.1-5.4-7-5.4c-1.1 0-2.3.1-3.4.3l1.6-11.8h11.7z"/><path d="m63.8 31c1-2.9 1.8-5.9 2.3-9l3.7-.4c-.9 3.2-2.1 6.2-3.6 9.1z"/><path d="m73.9 24c.9 0 1.8 0 2.7-.1 1.9-.2 3.7-1.1 5.1-2.4 1.8-1.7 3-4 3.2-6.5h-.1c-1.4 1.7-3.5 2.7-5.8 2.6-4.4 0-7.2-3.3-7.2-7.5-.2-4.6 3.4-8.5 8.1-8.7h.3c5 0 8.1 4.1 8.1 10.3 0 5.4-1.8 9.1-4.2 11.5-2 1.8-4.5 3-7.1 3.3-1 .2-2 .2-3 .2zm1.2-14.1c0 3 1.8 5.2 4.7 5.2 1.9.1 3.8-.9 4.8-2.6.2-.4.3-.8.3-1.2 0-4.2-1.5-7.4-5-7.4-2.8.1-4.8 2.6-4.8 6z"/><path d="m91.4 20.1c0-3.1 1.8-5.3 4.9-6.6v-.1c-2.7-1.3-3.9-3.4-3.9-5.5 0-3.9 3.3-6.5 7.6-6.5 4.7 0 7.1 3 7.1 6 0 2.1-1 4.3-4 5.7v.1c3 1.2 4.9 3.3 4.9 6.3 0 4.2-3.7 7.1-8.3 7.1-5.1.2-8.3-2.9-8.3-6.5zm13.2-.1c0-3-2.1-4.4-5.4-5.3-2.9.8-4.4 2.7-4.4 5-.1 2.5 1.8 4.7 4.9 4.7 3-.1 4.9-1.9 4.9-4.4zm-9.1-12.3c0 2.4 1.8 3.8 4.7 4.5 2.1-.7 3.7-2.2 3.7-4.4.1-2.1-1.5-3.9-3.6-4-.2 0-.4 0-.6 0-2.7 0-4.2 1.8-4.2 3.9z"/><path d="m127.9 13.8c0 8.3-3.1 12.9-8.5 12.9-4.8 0-8-4.5-8.1-12.6s3.5-12.7 8.5-12.7c5.2.1 8.1 4.6 8.1 12.4zm-13.3.4c0 6.4 2 10 5 10 3.4 0 5-4 5-10.2 0-6-1.5-10-5-10-2.8 0-5 3.6-5 10.2z"/><path d="m141.7 17.3v9c0 1-.4 1.1-2.6 1.1-.1-.3-.2-.5-.3-.8h1.1c.9 0 1 0 1-.3v-3.8h-8.2v4.9h-.7v-10.1zm-9 .8v3.6h3.6v-3.6zm4.4 3.6h3.8v-3.6h-3.8z"/><path d="m319.1 17.3v9c0 1-.4 1.1-2.6 1.1-.1-.3-.2-.5-.3-.8h1.1c.9 0 1 0 1-.3v-3.8h-8.2v4.9h-.7v-10.1zm-9 .8v3.6h3.6v-3.6zm4.4 3.6h3.8v-3.6h-3.8z"/><path d="m223 22.5c1.6 1 3.5 1.5 5.4 1.5 4.2 0 5.6-2.7 5.5-4.7 0-3.4-3.1-4.9-6.3-4.9h-1.8v-2.4h1.8c2.4 0 5.5-1.2 5.5-4.1 0-2-1.2-3.7-4.3-3.7-1.8.1-3.5.6-4.9 1.6l-.9-2.4c1.9-1.2 4.1-1.9 6.4-1.9 4.8 0 7 2.9 7 5.8 0 2.5-1.5 4.7-4.5 5.8v.1c3.1.5 5.5 3.1 5.5 6.3 0 3.9-3 7.3-8.9 7.3-2.2 0-4.4-.5-6.4-1.7z"/><path d="m240.4 31c1-2.9 1.8-5.9 2.3-9l3.7-.4c-.9 3.2-2.1 6.2-3.6 9.1z"/><path d="m250.4 24c.9 0 1.8 0 2.7-.1 1.9-.2 3.7-1.1 5.1-2.4 1.8-1.7 3-4 3.2-6.5h-.1c-1.4 1.7-3.5 2.7-5.8 2.6-4.4 0-7.2-3.3-7.2-7.5-.2-4.6 3.4-8.5 8.1-8.7h.3c5 0 8.1 4.1 8.1 10.3 0 5.4-1.8 9.1-4.2 11.5-2 1.8-4.5 3-7.1 3.3-1 .2-2 .2-3 .2zm1.2-14.1c0 3 1.8 5.2 4.7 5.2 1.9.1 3.8-.9 4.8-2.6.2-.4.3-.8.3-1.2 0-4.2-1.5-7.4-5-7.4-2.8.1-4.8 2.6-4.8 6z"/><path d="m267.9 20.1c0-3.1 1.8-5.3 4.9-6.6v-.1c-2.7-1.3-3.9-3.4-3.9-5.5 0-3.9 3.3-6.5 7.6-6.5 4.7 0 7.1 3 7.1 6 0 2.1-1 4.3-4 5.7v.1c3 1.2 4.9 3.3 4.9 6.3 0 4.2-3.6 7.1-8.3 7.1-5.2.2-8.3-2.9-8.3-6.5zm13.2-.1c0-3-2.1-4.4-5.4-5.3-2.9.8-4.4 2.7-4.4 5-.1 2.5 1.8 4.7 4.9 4.7 3-.1 4.9-1.9 4.9-4.4zm-9.1-12.3c0 2.4 1.8 3.8 4.7 4.5 2.1-.7 3.7-2.2 3.7-4.4.1-2.1-1.5-3.9-3.6-4-.2 0-.4 0-.6 0-2.6 0-4.2 1.8-4.2 3.9z"/><path d="m304.4 13.8c0 8.3-3.1 12.9-8.5 12.9-4.8 0-8-4.5-8.1-12.6s3.5-12.7 8.5-12.7c5.2.1 8.1 4.6 8.1 12.4zm-13.3.4c0 6.4 2 10 5 10 3.4 0 5-4 5-10.2 0-6-1.5-10-5-10-2.8 0-4.9 3.6-5 10.2z"/></g><path d="m191.8 3.9c0 .1-.1.1-.1.1-.5 4.6-2 7-5.9 8.6-.2-.2-.4-.4-.6-.6 3.7-1.5 5.2-3.8 5.6-7.6h-6.8v3.2h-.8v-4h7.8l.1-.1z" fill="#65504e" stroke="#65504e" stroke-linejoin="round" stroke-width=".2"/><path d="m195 3.5c1.2.4 2.4.9 3.5 1.6l-.4.7c-1.1-.7-2.2-1.2-3.4-1.6zm0 8.1c4.1-1.3 6.9-3.6 8.3-6.9.2.2.5.3.8.5-1.7 3.4-4.7 5.9-8.3 7 0 .1-.1.2-.2.3z" fill="#65504e" stroke="#65504e" stroke-linejoin="round" stroke-width=".2"/><path d="m212.4 11.5c.8 0 1.6-.1 2.5-.2v.8c-.8.1-1.9.1-2.4.1h-2.9c-1.8 0-2.6-.8-2.6-2.4v-6.8l1.1.1c0 .1-.1.2-.3.2v3.8c2-.6 3.9-1.4 5.8-2.3l.6.8h-.1c-.1 0-.1 0-.2 0-2 .9-4 1.7-6.1 2.3v2c0 1.2.6 1.6 1.8 1.6zm2.5-9.4c.7 0 1.3.6 1.3 1.3s-.6 1.3-1.3 1.3-1.3-.6-1.3-1.3.5-1.3 1.3-1.3zm.9 1.3c0-.5-.4-.9-.9-.9s-.9.4-.9.9.4.9.9.9c.5.1.9-.3.9-.9z" fill="#65504e" stroke="#65504e" stroke-linejoin="round" stroke-width=".2"/><path d="m186.3 21.4h10.8v.9h-10.8z" fill="#65504e" stroke="#65504e" stroke-linejoin="round" stroke-width=".14"/><path d="m205.8 22c-.4.5-.8 1-1.3 1.5-.1-.2-.3-.5-.4-.7 1.1-1.1 2-2.4 2.8-3.8l.9.3c-.1.1-.2.1-.3.1-.3.5-.6 1-.9 1.5l.2.1c0 .1-.1.1-.2.1v6.2h-.7zm1.7-5.2c0 .1-.2.1-.3.1-.8 1-1.7 1.9-2.7 2.6-.1-.2-.3-.4-.4-.6.9-.7 1.8-1.6 2.5-2.5zm6.6 5.2h-2.5v1.1h3v.7h-3v1.1h3.4v.7h-3.4v1.8h-.8v-1.8h-3.4v-.7h3.4v-1.1h-2.9v-.7h2.9v-1.1h-2.6v-.7h2.6v-1.2h-3.1v-.7h3.1v-1.1h-2.5v-.7h2.5v-1.2l1 .1c0 .1-.1.1-.2.2v1h2.6v1.8h1v.7h-1zm-2.5-3.6v1.1h1.8v-1.1zm0 1.8v1.1h1.8v-1.1z" fill="#65504e" stroke="#65504e" stroke-linejoin="round" stroke-width=".14"/><path d="m160.9 0v27.1" fill="none" stroke="#65504e" stroke-miterlimit="10" stroke-width=".25"/></svg>