<svg xmlns="http://www.w3.org/2000/svg" xmlns:xlink="http://www.w3.org/1999/xlink" viewBox="0 0 1287.03 330.62"><defs><style>.cls-1{isolation:isolate;}.cls-2{fill:none;}.cls-3{fill:url(#radial-gradient);}.cls-4{fill:url(#linear-gradient);}.cls-5{fill:url(#linear-gradient-2);}.cls-6{fill:url(#linear-gradient-3);}.cls-7{fill:url(#radial-gradient-2);}.cls-8{fill:#310304;}.cls-23,.cls-9{mix-blend-mode:screen;}.cls-9{fill:url(#linear-gradient-4);}.cls-10{fill:url(#linear-gradient-5);}.cls-11{fill:url(#linear-gradient-6);}.cls-12{fill:url(#linear-gradient-7);}.cls-13{fill:url(#linear-gradient-8);}.cls-14{fill:url(#linear-gradient-9);}.cls-15{fill:url(#linear-gradient-10);}.cls-16{fill:url(#linear-gradient-11);}.cls-17{fill:url(#linear-gradient-12);}.cls-18{fill:url(#radial-gradient-3);}.cls-19{fill:url(#radial-gradient-4);}.cls-20{fill:url(#radial-gradient-5);}.cls-21{fill:url(#linear-gradient-13);}.cls-22{fill:url(#linear-gradient-14);}.cls-23{fill:url(#linear-gradient-15);}.cls-24{fill:url(#linear-gradient-16);}.cls-25{fill:url(#linear-gradient-17);}</style><radialGradient id="radial-gradient" cx="156.81" cy="893.63" r="90.75" gradientTransform="translate(0 108.34) scale(1 0.21)" gradientUnits="userSpaceOnUse"><stop offset="0.03" stop-color="#dacac1"/><stop offset="0.81" stop-color="#f6f5ef"/></radialGradient><linearGradient id="linear-gradient" x1="1188.34" y1="-771.77" x2="1271.99" y2="-771.77" gradientTransform="matrix(-0.54, -0.84, -0.84, 0.54, 1226.49, 1570.81)" gradientUnits="userSpaceOnUse"><stop offset="0.01" stop-color="#a37f40"/><stop offset="0.03" stop-color="#9e783a"/><stop offset="0.11" stop-color="#91672a"/><stop offset="0.16" stop-color="#8d6125"/><stop offset="0.51" stop-color="#e9c576"/><stop offset="0.65" stop-color="#c1994f"/><stop offset="0.79" stop-color="#a27631"/><stop offset="0.86" stop-color="#966925"/><stop offset="0.9" stop-color="#996d29"/><stop offset="0.93" stop-color="#a17a35"/><stop offset="0.97" stop-color="#ae9048"/><stop offset="1" stop-color="#b9a158"/></linearGradient><linearGradient id="linear-gradient-2" x1="2995.93" y1="725.64" x2="3053.25" y2="725.64" gradientTransform="matrix(0.79, -0.62, -0.62, -0.79, -755.55, 2601.6)" xlink:href="#linear-gradient"/><linearGradient id="linear-gradient-3" x1="1204.48" y1="259.84" x2="1204.48" y2="191.77" gradientUnits="userSpaceOnUse"><stop offset="0" stop-color="#f6f5ef"/><stop offset="0.32" stop-color="#ece0bd"/><stop offset="0.64" stop-color="#e3cf92"/><stop offset="0.8" stop-color="#e0c882"/></linearGradient><radialGradient id="radial-gradient-2" cx="264.95" cy="155.19" r="46.3" gradientUnits="userSpaceOnUse"><stop offset="0.02" stop-color="#edce59"/><stop offset="0.22" stop-color="#d5aa48"/><stop offset="0.48" stop-color="#aa8638"/><stop offset="0.73" stop-color="#87682b"/><stop offset="0.86" stop-color="#7a5d26"/></radialGradient><linearGradient id="linear-gradient-4" x1="175.53" y1="43.28" x2="175.53" y2="151.26" gradientUnits="userSpaceOnUse"><stop offset="0.1" stop-color="#fff"/><stop offset="0.23" stop-color="#d3d0cb"/><stop offset="0.41" stop-color="#9b9488"/><stop offset="0.57" stop-color="#6e6453"/><stop offset="0.71" stop-color="#4e412d"/><stop offset="0.82" stop-color="#3a2c16"/><stop offset="0.89" stop-color="#33240d"/></linearGradient><linearGradient id="linear-gradient-5" x1="416.6" y1="343.45" x2="416.6" y2="281.87" gradientTransform="translate(-5.39 -47.88) rotate(2.52)" gradientUnits="userSpaceOnUse"><stop offset="0" stop-color="#f6f5ef"/><stop offset="0.14" stop-color="#ece4dc"/><stop offset="0.43" stop-color="#dbc4b9"/><stop offset="0.68" stop-color="#d0b1a3"/><stop offset="0.83" stop-color="#ccaa9b"/></linearGradient><linearGradient id="linear-gradient-6" x1="537.23" y1="301.64" x2="537.23" y2="240.07" xlink:href="#linear-gradient-5"/><linearGradient id="linear-gradient-7" x1="681.1" y1="264.16" x2="681.1" y2="202.57" xlink:href="#linear-gradient-5"/><linearGradient id="linear-gradient-8" x1="553.7" y1="301.65" x2="553.7" y2="240.06" xlink:href="#linear-gradient-5"/><linearGradient id="linear-gradient-9" x1="742.15" y1="264.16" x2="742.15" y2="202.57" xlink:href="#linear-gradient-5"/><linearGradient id="linear-gradient-10" x1="1054.01" y1="255.31" x2="1054.01" y2="189.12" gradientTransform="matrix(1, -0.09, 0.09, 1, 19.56, 106.9)" xlink:href="#linear-gradient-5"/><linearGradient id="linear-gradient-11" x1="790.48" y1="260.77" x2="787.43" y2="191.69" gradientTransform="translate(-5.39 -47.88) rotate(2.52)" gradientUnits="userSpaceOnUse"><stop offset="0" stop-color="#f6f5ef"/><stop offset="0.27" stop-color="#ede5dd"/><stop offset="0.81" stop-color="#d5bbae"/><stop offset="1" stop-color="#ccaa9b"/></linearGradient><linearGradient id="linear-gradient-12" x1="997.05" y1="255.32" x2="997.05" y2="189.11" gradientTransform="matrix(1, -0.09, 0.09, 1, 19.56, 106.9)" xlink:href="#linear-gradient-5"/><radialGradient id="radial-gradient-3" cx="1013.86" cy="125.59" r="29.21" xlink:href="#radial-gradient-2"/><radialGradient id="radial-gradient-4" cx="1035.94" cy="84.46" r="24.18" xlink:href="#radial-gradient-2"/><radialGradient id="radial-gradient-5" cx="1025.99" cy="58.08" r="27.72" gradientTransform="translate(-228.49 -10.81) scale(1.13)" xlink:href="#radial-gradient-2"/><linearGradient id="linear-gradient-13" x1="995.27" y1="282.24" x2="995.27" y2="222.13" xlink:href="#linear-gradient-3"/><linearGradient id="linear-gradient-14" x1="921.03" y1="264.43" x2="921.03" y2="195.37" gradientTransform="matrix(1, 0, 0, 1, 0, 0)" xlink:href="#linear-gradient-5"/><linearGradient id="linear-gradient-15" x1="144.61" y1="43.28" x2="144.61" y2="132.08" xlink:href="#linear-gradient-4"/><linearGradient id="linear-gradient-16" x1="1301.57" y1="-469.85" x2="1385.22" y2="-469.85" gradientTransform="translate(-228.77 1570.81) rotate(-57.14)" gradientUnits="userSpaceOnUse"><stop offset="0.01" stop-color="#a37f40"/><stop offset="0.03" stop-color="#9e783a"/><stop offset="0.11" stop-color="#91672a"/><stop offset="0.16" stop-color="#8d6125"/><stop offset="0.51" stop-color="#d5aa48"/><stop offset="0.65" stop-color="#aa8638"/><stop offset="0.79" stop-color="#87682b"/><stop offset="0.86" stop-color="#7a5d26"/><stop offset="0.89" stop-color="#7e6129"/><stop offset="0.93" stop-color="#8a6e33"/><stop offset="0.96" stop-color="#9e8442"/><stop offset="1" stop-color="#b9a158"/></linearGradient><linearGradient id="linear-gradient-17" x1="2705.9" y1="866.59" x2="2763.23" y2="866.59" gradientTransform="translate(1753.27 2601.6) rotate(-141.78)" xlink:href="#linear-gradient-16"/></defs><title>アセット 1</title><g class="cls-1"><g id="レイヤー_2" data-name="レイヤー 2"><g id="レイヤー_1-2" data-name="レイヤー 1"><rect class="cls-2" width="1287.03" height="330.62"/><ellipse class="cls-3" cx="156.81" cy="295.38" rx="90.75" ry="18.99"/><path class="cls-4" d="M1184.59,83.57A41.83,41.83,0,1,0,1242.42,96,41.84,41.84,0,0,0,1184.59,83.57Zm1.08,1.68a36.85,36.85,0,1,1-11,50.95A36.84,36.84,0,0,1,1185.67,85.25Z"/><path class="cls-5" d="M1194.13,142.49a28.66,28.66,0,1,0-4.78,40.24A28.65,28.65,0,0,0,1194.13,142.49Zm-1.07.84a25.25,25.25,0,1,1-35.45-4.2A25.25,25.25,0,0,1,1193.05,143.33Z"/><path class="cls-6" d="M1238.44,213.07a64.51,64.51,0,0,0-29.83-3.63c.13-5.23-3.52-10.45-10.81-13.94-12.43-5.95-30.45-4.65-40.25,2.91s-7.66,18.51,4.79,24.46a39.68,39.68,0,0,0,13.78,3.51c-5.92,10.75.54,23,16.93,29.4,19.41,7.62,45.3,4.24,57.83-7.56S1257.84,220.68,1238.44,213.07ZM1166,222c-11-5.24-12.84-14.88-4.21-21.54s24.5-7.81,35.45-2.57c6.16,3,9.33,7.28,9.5,11.7-10.39,1.39-19.94,5.16-26.19,11a24,24,0,0,0-3.67,4.33A34.64,34.64,0,0,1,1166,222Zm39.91-7.88a14.79,14.79,0,0,1-4.46,5.32c-4.91,3.79-12.18,5.73-19.55,5.78.43-.48.72-1,1.22-1.45C1188.6,218.67,1196.9,215.38,1206,214.13Zm39.11,34c-11,10.4-33.85,13.37-50.94,6.65-15.66-6.14-20.92-18.25-13.26-28.23,8.19-.15,16.24-2.34,21.71-6.56a16.58,16.58,0,0,0,5-6,56.9,56.9,0,0,1,26.52,3.17C1251.21,223.84,1256.11,237.71,1245.07,248.09Z"/><path class="cls-7" d="M303.19,155.64c1.26,0,2.5,0,3.81,0l-5.4-.07c-21.77-1.08-35.39-8.21-36.07-45.58l0-5c0,.88-.06,1.62-.09,2.51,0-.89,0-1.62,0-2.51l-.05,5c-1.54,37.35-15.33,44.15-37.13,44.73l-5.37-.05c1.31,0,2.54.05,3.79.11-1.25,0-2.51,0-3.79,0l5.37.05c21.79,1.1,35.4,8.23,36.07,45.6l-.06,5c0-.87.08-1.66.1-2.48,0,.83,0,1.61,0,2.48l.06-5c1.54-37.36,15.33-44.18,37.12-44.74l5.37,0C305.69,155.71,304.45,155.68,303.19,155.64Z"/><path class="cls-8" d="M219.29,174.51c-7.69-15.39-17-25.35-22.35-32.84-.24-.37-.52-.78-.8-1.16-.54-.8-1.09-1.6-1.53-2.35l-.08,0c-5.78-8.15-6.88-19.28-2-26.33S203.38,101,201.74,88c-.87-7-9.76-18.44-9.76-18.44l4.88,15.73s-10.77-4.05-21.33,6.19c-10.56-10.24-21.34-6.19-21.34-6.19l4.89-15.73S150.18,81,149.31,88c-1.62,13,4.34,16.83,9.23,23.87s3.77,18.18-2,26.34a40.31,40.31,0,0,0-6.13,12.52h0S145.62,161,144,197.86c-1,22.77-8,30.66-8,30.66s23.38,19.93,56.46,1c26.55-15.21,15.75-27,48.68-26.49C241.18,203,230.35,196.61,219.29,174.51Z"/><path class="cls-8" d="M197,141.78l-.09-.12c-.24-.37-.52-.78-.8-1.16-.54-.8-1.09-1.6-1.53-2.35l-.08,0c-5.78-8.15-6.88-19.28-2-26.33S203.38,101,201.74,88c-.87-7-9.76-18.44-9.76-18.44l4.88,15.73s-10.77-4.05-21.33,6.19c-10.56-10.24-21.34-6.19-21.34-6.19l4.89-15.73S150.18,81,149.31,88c-1.62,13,4.34,16.83,9.23,23.87s3.77,18.18-2,26.34a40.31,40.31,0,0,0-6.13,12.52s-.08.17-.22.53l1.53,0C168.54,151.26,184.14,147.76,197,141.78Z"/><path class="cls-9" d="M197,141.78l-.09-.12c-.24-.37-.52-.78-.8-1.16-.54-.8-1.09-1.6-1.53-2.35l-.08,0c-5.78-8.15-6.88-19.28-2-26.33S203.38,101,201.74,88c-.87-7-9.76-18.44-9.76-18.44l4.88,15.73s-10.77-4.05-21.33,6.19c-10.56-10.24-21.34-6.19-21.34-6.19l4.89-15.73S150.18,81,149.31,88c-1.62,13,4.34,16.83,9.23,23.87s3.77,18.18-2,26.34a40.31,40.31,0,0,0-6.13,12.52s-.08.17-.22.53l1.53,0C168.54,151.26,184.14,147.76,197,141.78Z"/><path class="cls-8" d="M352.57,120.25a36.37,36.37,0,0,1,12.89,9.09l74-10,5.53-5.43,8.89,7.92a2.67,2.67,0,0,1,.93,3c0,1.24-2.32,2.9-7.13,4.95q-20.14,47-42.11,70.64-22.74,24.29-61.83,42.52l-.5-2.44q35-20.37,56.75-45.2a196.82,196.82,0,0,0,25.12-37.53q10.8-20.78,13.68-31.58-36.53,4.37-76.95,10.3L348.18,187.3c-.85,1.73-2.08,2-3.72.93q-6.09-3.2-4.65-6.43a172.35,172.35,0,0,0,6.3-19.16l4.09-15.25q2.89-10.79,2.73-14.51C353.32,130,352.57,120.25,352.57,120.25Z"/><path class="cls-8" d="M597.82,116.18c-54.64,57.52-118.22,98-120.09,97.78-5.7-3.24-10.79-11.28-11.56-21.47l1.25-.62c1.91,4.39,4.86,6.41,8.8,6.07q13.05-1.11,56-29.62,37.91-26.82,63.53-53.23Zm-75-16.56q11.77,5.82,9.55,14.08c-1.12,4.24-3.09,6.48-5.85,6.71-1.57.13-3.44-1.57-5.58-5.11a62.24,62.24,0,0,0-25.05-19l1.26-2.59A73.11,73.11,0,0,1,522.86,99.62Z"/><path class="cls-8" d="M657.48,122.19a95.11,95.11,0,0,1-15.33,3.17,25,25,0,0,1-8-.56l-8.43,29.27q-5,16.57-.86,20.56,4.58,4.56,27.12,2.65c17.8-1.53,43.28-8.67,44.06-8.74a3.31,3.31,0,0,1,3.06,1.6c2.75,2.66,4,4.62,3.64,5.9q-.45,3.77-13.65,5.52-21.12,3-41.29,4.77-26.08,2.23-31.33-4.15-4.84-5.79-.92-20.4l17.59-74.5c1.6-5.93,3.25-24.34,3.25-24.34,5.12,1.33,6.4,1.94,10.45,5.86,3.6,3.49,3.73,6,3.28,7.73a8.68,8.68,0,0,1-1.11,2c-1.68,3.42-2.55,4.71-3.12,6.83l-10.55,35,3-.25c5.53-.47,16.06-3.42,31.52-9.53a196.55,196.55,0,0,0,37.05-19.3,45.39,45.39,0,0,1,8.39,5.49c1,2,.41,3.48-1.79,4.49Q709,102.89,702,105.35,667.48,119.48,657.48,122.19ZM720.3,84.54q-5.93.5-8.89-3.59t-1.25-10.44a22.68,22.68,0,0,1,7-11.15,19.24,19.24,0,0,1,11.28-5.31q5.92-.51,8.89,3.58c2,2.72,2.39,6.21,1.25,10.44a22.68,22.68,0,0,1-7,11.15A19.2,19.2,0,0,1,720.3,84.54Zm-1-22.26a16.22,16.22,0,0,0-5,7.87c-.78,3-.49,5.43.93,7.38a6.47,6.47,0,0,0,6.26,2.56,13.66,13.66,0,0,0,8-3.78,16.17,16.17,0,0,0,5-7.88c.8-3,.49-5.41-.92-7.38a6.48,6.48,0,0,0-6.26-2.56A13.76,13.76,0,0,0,719.3,62.28Z"/><path class="cls-8" d="M806.35,131.89q5,6.85,1.08,20.39a52,52,0,0,1-14.29,23.59q-11.55,10.94-29.62,15.63l.39-.49a70.3,70.3,0,0,0,24.68-15.26,53.24,53.24,0,0,0,13.89-23q3.75-12.81-.62-18.73-4.83-6.54-18-4.39a19.19,19.19,0,0,0-3.47.92,7.39,7.39,0,0,1,1.21,6.77q-2.79,9.52-17,30.65Q750,189.52,745.26,190.29c-2.69.44-5.1-1.27-7.18-5.11q-3-6.13,0-16.38A59.74,59.74,0,0,1,754.89,142a58,58,0,0,1,31.21-15.54Q800.57,124.12,806.35,131.89Zm-48.62,11.41a52.34,52.34,0,0,0-14.62,23.65q-1.83,6.23-.76,10.23c1.12,4.23,2.54,6.33,4.27,6.27q4.81-2.17,17.47-21.32,12-18,14.15-25.31c.66-1.51.55-3.35-.3-5.53Q767.52,134,757.73,143.29Z"/><path class="cls-8" d="M938.76,69.63l3.28-.24,54.75-5.09,4.38,2.75-.8,3.16-32,2.72,1,.54c1.94,1.48,1.43,2.76-1.55,3.83l-1.94.78-2.08,8.36,26.26-3L997,85.94l-.78,3.15-30.79,2.63q7.37,9.86,25.89,16.94l-.46.27c-3.07,2.53-8.38,4.19-10.91,8.12A52.41,52.41,0,0,1,961.85,94.5l-6.32,25.24-8.61,2,5.84-23.35a155.72,155.72,0,0,1-21.29,17.87l5.3,2c2.74,1.41-4.07,4.67-4.07,4.67l-5.62,4,36.75-3.26,6.21,1.68c.94.27.19,3.24-1.7,4.47l-.4.66-7.27,29-8.6,2,.94-3.79-6.51.55,2.93,2.23c1.54,1.52-3.18,4.08-3.18,4.08l-8.71,8.67L955,170.45a26.35,26.35,0,0,0-4.33-5.8l1.5-1.37q11.91,3.31,9.86,11.51a4,4,0,0,1-3.75,3.41c-1.18.1-2-.65-2.33-2.27l-.39-3L933,179.75s-3.64,2-3.7,1.52L928.05,174l5.34-.46a104.5,104.5,0,0,0,7.76-14.87l-12.43,1.06-6.48,25.89c-.52,2.1.2,3.07,2.17,2.9l30.8-2.62q4.14-.35,7-4.93a149.83,149.83,0,0,0,9.6-17.49l.92-.08c-1.55,4.67-1.57,9.62-2.94,15.08-.74,2.95-.42,14.86-13.86,16l-36.13,3.08q-8.87.75-6.5-8.72l7.1-28.41-13.62,1.16,4.35.81c1.36.7-4.89,6-4.89,6q-18.79,28.79-56.17,36.91l.31-2.4c24-7.82,40.34-21.86,49.31-40.75l-16,1.36-1.27,5.06-8.61,2L884.73,127l9.19,2.7,27.25-2.31,5.56-8.29-2.07-.17-1.93-.11a163.06,163.06,0,0,0,25.55-25.65l-35.52,3-1,3.78q14.71,3.71,12.67,11.9-.94,3.79-4.49,4.09c-1.19.1-2-.66-2.33-2.27A20,20,0,0,0,911,103.14L905.79,124l-8.62,2,5.06-20.21a184.25,184.25,0,0,1-29.49,22.9l-3,12q-10,39.77-34.91,65.37l-1.49-.91c11.47-15,20.17-36.72,26.9-63.67l18.5-74.87,10.57,7.3,43.24-3.68Zm-57.21,23.8L905.76,91l3.42-13L884.9,80Zm-8,32.05A172.11,172.11,0,0,0,900.3,97.27L880.17,99Zm14.92,19.12,30.2-2.57,2.21-8.84-30.19,2.57Zm-3.62,14.52L915,156.56l2.53-10.1L887.35,149Zm31.38-76.81-1.55,7.58,16.22-1.38,8.88-.76,16-1.35,3.16-12.66-39.18,3.33-1.69.14Zm10.74,59,30.79-2.63,2.21-8.84-30.79,2.62Zm-3.62,14.52,30.78-2.63,2.53-10.1-30.79,2.62Z"/><path class="cls-8" d="M1048.54,113.51s-32.69,70.53-34,75.67c-1.49,4.44-2.82,8.84-7.09,9.18-3.19.25-3.75-2.94-4.26-7-1.54-11.87-.94-22.52-1.09-29.49l8.82,13.9,36-62.48Zm47-45.25,6.89,4.83c2,.19-1.12,5.2-1.12,5.2l-4.85,18.79,29.06-3.27,7.69,2.26-.71,2.76-37.28,3.07-7.2,27.9,35.9-3.51,6.77,1.8-.86,3.3-48.47,4,4.62,2.31c1.4,1.32-4.19,4.12-4.19,4.12q-14.68,18.47-31.21,38.16l52.51-7.56c-1.84-6.31-4.94-13.86-10.61-20.24l1.53-1.12c13.63,10.37,21.72,20.84,21.1,31.08-.28,4.62-5.25,6.44-8.43,6.7q-2.67.22-2.88-3a42.08,42.08,0,0,0-.48-10.21L1041,189.87s-6.49,3.09-7.15.26l-2.56-8,13.83-1.68c12.06-17.16,23.2-32.1,29.89-44.52l-32,2.64-.79-5,37.28-3.08,7.2-27.9-26.11,2.16-.88-4.65,28.23-2.34Z"/><path class="cls-10" d="M447.36,297.25q-20.35-20-42.4-30-22.85-10.23-62-17.69l-.5,1.05q35.11,8.42,56.94,18.88a131.94,131.94,0,0,1,25.27,15.9q10.88,8.83,13.81,13.43-36.54-1.52-77-3.69l-13.83-21.71c-.86-.74-2.09-.86-3.74-.37-4.06,1-5.6,1.89-4.63,2.81a54.75,54.75,0,0,1,6.38,8.18l4.14,6.52c2,3.06,2.88,5.14,2.78,6.2.43,1.25-.29,5.44-.29,5.44a52.86,52.86,0,0,0,12.85-4l74,3.61,5.55,2.28,8.87-3.48c.94-.33,1.25-.77.91-1.31C454.54,298.77,452.17,298.08,447.36,297.25Z"/><path class="cls-11" d="M530.65,258.84c-1.58,0-3.44.7-5.56,2.26q-9.41,5.33-25,8.38l1.28,1.11A157,157,0,0,0,527,267.81c7.82-1.74,11-3.79,9.49-6.14Q534.81,259,530.65,258.84Z"/><path class="cls-12" d="M713.7,227.6l-11.54-1.65q-34.57-5.73-44.57-6.81t-15.35-1.22a57.15,57.15,0,0,0-8,.32l-8.54-12.5c-3.4-4.71-3.69-7.65-1-8.83,3.05-1.34,12-1.8,27.11-1.39,17.81.48,43.32,3.31,44.1,3.34a5.39,5.39,0,0,0,3-.72c2.75-1.17,4-2,3.6-2.57q-.43-1.62-13.67-2.24-21.12-1.12-41.3-1.66-26.08-.72-31.31,2.08-4.82,2.55-.83,8.77l17.91,31.86c1.62,2.52,3.35,10.43,3.35,10.43,5.11-.62,6.39-.89,10.43-2.62,3.58-1.54,3.71-2.64,3.24-3.36-.22-.36-.82-.58-1.11-.83-1.7-1.46-2.57-2-3.15-2.91l-10.68-15,3,.09c5.54.14,16.09,1.31,31.56,3.79A338.37,338.37,0,0,1,707.15,232a69.92,69.92,0,0,0,8.37-2.44C716.51,228.66,715.91,228,713.7,227.6Z"/><path class="cls-13" d="M470,228.44l1.25.25c1.89-1.9,4.84-2.8,8.78-2.69q13,.35,56.17,12.2,38,11.16,63.75,22.27l2-.47c-54.88-24.2-118.63-41-120.5-40.89C475.75,220.54,470.71,224,470,228.44Z"/><path class="cls-14" d="M739,241.62c-1.14-1.8-3.5-3.39-7.09-4.73a34.7,34.7,0,0,0-11.29-2.18q-5.93-.15-8.88,1.64c-1.95,1.18-2.37,2.69-1.21,4.49s3.52,3.4,7.09,4.73a34.67,34.67,0,0,0,11.29,2.18q5.94.15,8.89-1.63C739.71,244.93,740.13,243.43,739,241.62Zm-5,3.07a11.57,11.57,0,0,1-6.26,1.15,24.65,24.65,0,0,1-8-1.54c-2.55-1-4.23-2.07-5-3.34s-.5-2.32.91-3.17,3.47-1.24,6.25-1.16a24.42,24.42,0,0,1,8,1.55q3.84,1.42,5,3.33C735.61,242.77,735.32,243.84,733.91,244.68Z"/><path class="cls-15" d="M1142,229.35l-.89-1.06L1104,232.47l-8.88-10.8,35.73-3.79,6.58-1.76-1.05-1.28-48.2,5.43,4.41-1.67c1.31-.77-4.39-1.15-4.39-1.15q-15.69-5.67-33.29-11.62l52.41-4.51a26,26,0,0,1-9.2,10.16l1.58.26c12.82-6.42,20.17-12.06,18.91-16.33-.59-1.92-5.6-2-8.77-1.6-1.77.19-2.67.76-2.67,1.7a8,8,0,0,1,.18,4.41l-62.58,3.14s-6.62-.36-7.09.93l-2,3.78,13.76-1.32c13,5.52,25,10.23,32.38,14.53l-31.77,3.58-.47,2.24,37.07-4.18,8.89,10.8-26,2.92-.58,2.12,28.06-3.16,9.39,11.43,6.52-3.07c2-.38-1.45-2-1.45-2l-6-7.27,28.94-2.88Z"/><path class="cls-16" d="M793,202.71c-7.75-3.06-17.61-5.21-29.68-6.44l.38.21a109.84,109.84,0,0,1,24.74,6.33c6.54,2.59,11.53,6.21,14,9.75s2.36,6.33-.55,8.06q-4.79,2.85-18,2.05c-1.15-.06-2.29-.19-3.47-.36,1.5-.9,1.9-1.88,1.18-2.92q-2.83-4.06-17.12-13-14.74-9.12-19.47-9.41a10.09,10.09,0,0,0-7.16,2.26c-2,1.77-2,4.13.05,7q4.45,6.4,16.94,11.35,13.39,5.3,31.28,6.39,14.46.87,20.22-2.52,5-3,1-8.78T793,202.71ZM778,222a76.31,76.31,0,0,1-20.26-5Q747,212.8,743,207c-1.21-1.77-1.5-3.23-.8-4.38,1.12-1.83,2.52-2.75,4.24-2.74q4.83.89,17.56,9c8.07,5.08,12.81,8.66,14.27,10.75C779,220.27,778.84,221.06,778,222Z"/><path class="cls-17" d="M1057.15,234.41s-36.82-25.18-38.45-27.16c-1.76-1.67-3.36-3.34-7.6-2.86-3.18.36-3.52,1.8-3.77,3.59-.79,5.28.49,9.72.78,12.71l7.86-7.21,39.55,21.26Z"/><path class="cls-18" d="M1038.94,125.88c.82,0,1.63,0,2.5,0l-3.55,0c-14.27-.67-23.22-5.06-23.68-28l0-3.05c0,.54,0,1-.07,1.53,0-.53,0-1,0-1.53l0,3.05c-1,22.89-10,27.05-24.32,27.39l-3.53,0c.86,0,1.67,0,2.49.07h-2.49l3.53,0c14.29.68,23.22,5.06,23.68,28l0,3c0-.54,0-1,.06-1.53,0,.52,0,1,0,1.53l0-3c1-22.89,10-27.06,24.32-27.41l3.53,0C1040.58,125.93,1039.77,125.91,1038.94,125.88Z"/><path class="cls-19" d="M1056.68,84.7c.68,0,1.36,0,2.08,0l-2.93,0c-11.82-.55-19.21-4.17-19.59-23.13l0-2.52c0,.45,0,.84-.05,1.27,0-.43,0-.82,0-1.27l0,2.52c-.82,18.94-8.3,22.4-20.13,22.68l-2.92,0c.71,0,1.37,0,2.05.05-.68,0-1.36,0-2.06,0l2.92,0c11.82.56,19.2,4.18,19.59,23.15l0,2.51c0-.44,0-.84,0-1.26,0,.42,0,.82,0,1.26l0-2.51c.82-18.94,8.3-22.41,20.12-22.69l2.92,0Z"/><path class="cls-20" d="M962.08,55.37c.88,0,1.76,0,2.69,0l-3.82-.06c-15.37-.72-25-5.43-25.47-30.08l0-3.29c0,.58,0,1.08-.08,1.65,0-.57,0-1.07,0-1.65l0,3.28c-1.06,24.64-10.79,29.13-26.16,29.48l-3.8,0c.92,0,1.78,0,2.67.06-.89,0-1.76,0-2.68,0l3.81.05c15.36.71,25,5.42,25.47,30.08l0,3.28c0-.58.05-1.09.06-1.64,0,.55,0,1.06,0,1.64l0-3.28c1.07-24.64,10.79-29.13,26.16-29.49l3.81.06Z"/><path class="cls-21" d="M1045.7,237.35c-.52,0-1,0-1.48,0h1.46l-2.08,0c-8.45-.34-13.73-2.49-14-13.67l0-1.49c0,.27,0,.5,0,.75,0-.25,0-.48,0-.75l0,1.49c-.56,11.17-5.9,13.19-14.35,13.35l-2.08,0c.49,0,1,0,1.47,0h-1.47l2.08,0c8.45.34,13.75,2.48,14,13.66l0,1.49c0-.25,0-.48,0-.74,0,.26,0,.49,0,.75v-1.49c.56-11.16,5.91-13.2,14.36-13.35Zm18,10.73h-.5c-7-.28-11.37-2.07-11.62-11.32v-1.23c0,.22,0,.41,0,.61,0-.2,0-.39,0-.61v1.23c-.46,9.25-4.88,10.93-11.87,11l-1.73,0,1.22,0H1038l1.73,0c7,.29,11.37,2.07,11.62,11.32v1.23c0-.21,0-.4,0-.61,0,.21,0,.4,0,.61v-1.23c.46-9.25,4.87-10.92,11.87-11l1.74,0ZM961.51,261c-9.95-.47-16.17-3.52-16.49-19.48l0-2.13c0,.38,0,.7,0,1.07,0-.37,0-.69,0-1.07l0,2.12c-.69,16-7,18.85-16.94,19.09h-2.46l1.73,0h-1.74l2.47,0c9.95.46,16.17,3.52,16.49,19.47l0,2.13c0-.37,0-.71,0-1.06,0,.36,0,.69,0,1.06l0-2.13c.69-15.95,7-18.85,16.94-19.09l2.46,0-1.73,0c.57,0,1.14,0,1.74,0Z"/><path class="cls-22" d="M1007.67,250.91l-.93-1.26L974.81,252l1-.34c1.86-.85,1.3-1.34-1.71-1.48l-2-.11-2.47-3.35,26.26-1.59,6.74-1.81-.94-1.25L971,244.26q6.86-5,24.94-10.05l-.46-.06c-3.16-.75-8.53-.89-11.22-2.29q-11.39,4.81-17,11.6l-7.47-10.09-8.65.09,6.91,9.34a193,193,0,0,0-22-5.32l5.16-1.44c2.66-.9-4.26-1.56-4.26-1.56l-5.79-1.08,36.69-2.61,6.09-1.38c.92-.23,0-1.41-1.91-1.73l-.43-.23-8.58-11.62-8.65.1,1.1,1.51-6.49.48,2.81-1.28c1.47-.81-3.34-1.39-3.34-1.39l-9.07-2.75,17.51-.75a20.26,20.26,0,0,1-4,3l1.57.42c7.77-1.8,10.87-3.8,9.26-6-.63-.83-1.92-1.19-3.89-1a2.32,2.32,0,0,0-2.21,1.23l-.25,1.35-22.76-.48s-3.71-.47-3.75-.25l-.9,3.24,5.33-.39a51.85,51.85,0,0,1,8.41,5.51l-12.4.9-7.63-10.37c-.64-.84,0-1.33,2-1.47l30.75-2.22a13,13,0,0,1,7.21,1.34A80.37,80.37,0,0,1,974,212.91l.9-.07c-1.75-1.83-2-3.94-3.61-6.12-.87-1.18-1.12-6.31-14.54-5.34l-36,2.61c-5.9.43-7.94,1.91-6.08,4.44L923,219.8l-13.59,1,4.28-.82c1.32-.44-5.15-2-5.15-2q-20-10.26-57.56-9.67l.42,1c24.2.74,41.12,5,50.92,12.05l-16,1.16-1.51-2-8.65.09L889.12,238l9-2.16,27.18-2,5.93,2.93-2.06.29-1.92.26a171.52,171.52,0,0,1,26.59,8.19l-35.46,2.57-1.11-1.52q14.45-3.18,12-6.46c-.74-1-2.3-1.43-4.66-1.26-1.18.08-1.94.5-2.22,1.23-1,2-3,3.77-6.09,5.23L910.2,237l-8.67.09,6,8.08a248.8,248.8,0,0,0-30.38-6.57l-3.54-4.81q-11.74-15.91-37.76-24.14l-1.42.54c12.09,5.16,21.77,13.5,29.72,24.28l21.9,30,10.16-4.27L939.32,257l4.22,5.71,10.84-1.32c1.86-.31,2.66-.63,2.4-1a3.38,3.38,0,0,0-2.51-.89l-3.35-.29-2.16-2.94,54.68-3.78Zm-120-26.69L917.84,222l3,4-30.14,2.19Zm6.89,9.35L892,230l30.13-2.19,2.62,3.53Zm31.54-12.13,30.72-2.23,3,4-30.72,2.22Zm35,3.58,2.61,3.53L933,230.78l-2.6-3.54Zm-75.25,25.42-7.84-10.6A170.45,170.45,0,0,1,906,249Zm5.59,7.57-4-5.36,24.19-1.6,4,5.2Zm34.77-2.52-1.67.13-2.08-2-1.89-3.08,16.19-1.18,8.86-.64,16-1.15,3.74,5.07Z"/><path class="cls-8" d="M179.55,247.45A93.22,93.22,0,1,1,256.92,102.2a119.27,119.27,0,1,0,0,104.05A93.13,93.13,0,0,1,179.55,247.45Z"/><path class="cls-23" d="M179.55,61A92.87,92.87,0,0,1,219.1,69.8c-13.94-15.88-39.58-26.53-68.92-26.53-44.21,0-80.06,24.17-80.06,54,0,13.27,7.11,25.41,18.88,34.81A93.25,93.25,0,0,1,179.55,61Z"/><path class="cls-24" d="M70.35,164.72a41.83,41.83,0,1,0,57.82-12.44A41.81,41.81,0,0,0,70.35,164.72ZM138,204.91a36.85,36.85,0,1,1-11-50.94A36.84,36.84,0,0,1,138,204.91Z"/><path class="cls-25" d="M123.42,251.45a28.66,28.66,0,1,0-4.79-40.24A28.66,28.66,0,0,0,123.42,251.45Zm31.75-43.61a25.24,25.24,0,1,1-35.45,4.2A25.22,25.22,0,0,1,155.17,207.84Z"/></g></g></g></svg>