<svg enable-background="new 0 0 22.1 22.5" height="22.5" viewBox="0 0 22.1 22.5" width="22.1" xmlns="http://www.w3.org/2000/svg"><g fill="#fff"><path d="m.6 5.9c.5-.7 1.3-1.1 2.1-1.2l14.1-1.1.1-.8c.2-1.3 1.3-2.3 2.6-2.5l1.8-.3c.4-.1.8.2.9.7 0 .4-.2.8-.6.8l-1.8.3c-.7.1-1.2.6-1.3 1.3l-2.5 13.4c-.2 1.3-1.3 2.2-2.6 2.2h-9.7c-.4 0-.8-.3-.8-.7s.3-.8.7-.8h.1 9.8c.5 0 1-.4 1.1-.9l.2-1.2h-10.8c-1.4 0-2.6-.9-2.9-2.3l-1-4.4c-.2-1 0-1.8.5-2.5zm7.7-.4-3.2.3v8h3.2zm1 8.2h3.2v-8.5l-3.2.2zm7.2-8.8-3.1.2v8.6h1.6zm-15.2 3.1 1 4.4c.2.8.9 1.3 1.6 1.3h.1v-7.8l-1.2.1c-.9 0-1.6.8-1.5 1.7z"/><path d="m12.9 19.8c.8 0 1.4.6 1.4 1.4s-.6 1.4-1.4 1.4-1.4-.6-1.4-1.4c0-.8.6-1.4 1.4-1.4z"/><path d="m5.5 19.8c.8 0 1.4.6 1.4 1.4s-.6 1.4-1.4 1.4-1.4-.6-1.4-1.4c.1-.8.7-1.4 1.4-1.4z"/></g></svg>