<?xml version="1.0" encoding="utf-8"?>
<!-- Generator: Adobe Illustrator 23.0.2, SVG Export Plug-In . SVG Version: 6.00 Build 0)  -->
<svg version="1.1" id="レイヤー_1" xmlns="http://www.w3.org/2000/svg" xmlns:xlink="http://www.w3.org/1999/xlink" x="0px"
	 y="0px" viewBox="0 0 22.5 22.5" style="enable-background:new 0 0 22.5 22.5;" xml:space="preserve">
<style type="text/css">
	.st0{fill:#65504E;}
</style>
<g id="グループ化_215" transform="translate(0 -19)">
	<path id="パス_122" class="st0" d="M14.8,31.7c-0.2-0.2-0.6-0.2-0.8,0l-0.7,0.7c-0.2,0.2-0.5,0.2-0.8,0c-1.3-0.9-2.4-2.1-3.3-3.3
		c-0.2-0.2-0.2-0.6,0-0.8l0.7-0.7c0.2-0.2,0.2-0.6,0-0.8c0,0,0,0,0,0l-1.6-1.6c-0.2-0.2-0.6-0.2-0.8,0l-0.9,0.9c-1,1,0.3,4,2.5,6.2
		s5.3,3.5,6.2,2.5l0.9-0.9c0.2-0.2,0.2-0.6,0-0.8c0,0,0,0,0,0L14.8,31.7z"/>
	<path id="パス_123" class="st0" d="M11.2,19C5,19,0,24,0,30.2s5,11.2,11.2,11.2s11.2-5,11.2-11.2S17.5,19,11.2,19z M11.2,39.7
		c-5.2,0-9.5-4.2-9.5-9.5c0-5.2,4.2-9.5,9.5-9.5s9.5,4.2,9.5,9.5C20.7,35.5,16.5,39.7,11.2,39.7z"/>
</g>
</svg>
