<svg enable-background="new 0 0 48 48" viewBox="0 0 48 48" xmlns="http://www.w3.org/2000/svg"><path d="m24 0c-13.3 0-24 10.7-24 24s10.7 24 24 24 24-10.7 24-24-10.7-24-24-24zm13.4 40.2c-1.4-.5-2.9-1.2-4.8-1.8-1.5-.5-2.5-1.8-2.6-3.4v-2c2.8-.1 5.5-.9 7.9-2.3.5-.3.6-.9.4-1.4 0-.1-.1-.1-.2-.2-1.9-1.9-3.1-4.1-3.1-11.1 0-7.2-5.2-12-11-12s-11 4.8-11 12c0 7-1.2 9.2-3.1 11.2-.4.4-.4 1 0 1.4.1.1.1.1.2.2 2.4 1.3 5.1 2.1 7.9 2.3v2c-.1 1.6-1.1 2.9-2.6 3.4-1.8.7-3.4 1.2-4.8 1.8-8.9-7.5-10.2-20.7-2.8-29.7s20.7-10.1 29.6-2.7 10.2 20.6 2.8 29.6c-.9.9-1.8 1.9-2.8 2.7z" fill="#65504e"/></svg>