<svg enable-background="new 0 0 42.7 35.4" viewBox="0 0 42.7 35.4" xmlns="http://www.w3.org/2000/svg"><g fill="#65504e"><path d="m18.4 34.1 2.8-1-2.7-2.1z"/><path d="m25.1 31.8-6.1-4.9-.2 2.6 3.7 3.1z"/><path d="m17.9 14.3h26.6v7.8h-26.6z" transform="matrix(.6334 -.7738 .7738 .6334 -2.6151 30.8091)"/><path d="m.3 0h26.2c.2 0 .3.1.3.3v3.2c0 .2-.1.3-.3.3h-26.2c-.2 0-.3-.1-.3-.3v-3.2c0-.2.1-.3.3-.3z"/><path d="m.3 7.9h26.2c.2 0 .3.1.3.3v3.2c0 .2-.1.3-.3.3h-26.2c-.2 0-.3-.1-.3-.3v-3.2c0-.1.1-.3.3-.3z"/><path d="m.3 15.8h22.1c.2 0 .3.1.3.3v3.2c0 .2-.1.3-.3.3h-22.1c-.2 0-.3-.1-.3-.3v-3.2c0-.1.1-.3.3-.3z"/><path d="m.3 23.7h16.1c.2 0 .3.1.3.3v3.2c0 .2-.1.3-.3.3h-16.1c-.2 0-.3-.1-.3-.3v-3.2c0-.1.1-.3.3-.3z"/><path d="m.3 31.6h13.6c.2 0 .3.1.3.3v3.2c0 .2-.1.3-.3.3h-13.6c-.2 0-.3-.1-.3-.3v-3.1c0-.2.1-.4.3-.4z"/></g></svg>